<?xml version="1.0" encoding="UTF-8" standalone="no"?>
<!-- Created with Inkscape (http://www.inkscape.org/) -->

<svg
   xmlns:dc="http://purl.org/dc/elements/1.1/"
   xmlns:cc="http://creativecommons.org/ns#"
   xmlns:rdf="http://www.w3.org/1999/02/22-rdf-syntax-ns#"
   xmlns:svg="http://www.w3.org/2000/svg"
   xmlns="http://www.w3.org/2000/svg"
   xmlns:sodipodi="http://sodipodi.sourceforge.net/DTD/sodipodi-0.dtd"
   xmlns:inkscape="http://www.inkscape.org/namespaces/inkscape"
   width="74mm"
   height="74mm"
   viewBox="0 0 74 74"
   version="1.1"
   id="svg8"
   inkscape:version="0.92.3 (2405546, 2018-03-11)"
   sodipodi:docname="swimming.svg">
  <defs
     id="defs2" />
  <sodipodi:namedview
     id="base"
     pagecolor="#ffffff"
     bordercolor="#666666"
     borderopacity="1.0"
     inkscape:pageopacity="0.0"
     inkscape:pageshadow="2"
     inkscape:zoom="0.35"
     inkscape:cx="-168.57143"
     inkscape:cy="548.57143"
     inkscape:document-units="mm"
     inkscape:current-layer="layer1"
     showgrid="false"
     units="mm"
     inkscape:window-width="1920"
     inkscape:window-height="1016"
     inkscape:window-x="0"
     inkscape:window-y="27"
     inkscape:window-maximized="1"
     width="74mm" />
  <metadata
     id="metadata5">
    <rdf:RDF>
      <cc:Work
         rdf:about="">
        <dc:format>image/svg+xml</dc:format>
        <dc:type
           rdf:resource="http://purl.org/dc/dcmitype/StillImage" />
        <dc:title></dc:title>
      </cc:Work>
    </rdf:RDF>
  </metadata>
  <g
     inkscape:label="Calque 1"
     inkscape:groupmode="layer"
     id="layer1"
     transform="translate(0,-223)">
    <path
       d="m 47.783059,236.35377 c -0.46941,0 -1.82124,0.61325 -1.82124,0.61325 l -13.89327,7.02416 c -1.85,0.73652 -2.58304,3.68783 -1.46988,5.16151 l 4.05926,5.88887 -16.60466,8.48614 8.35527,6.27263 10.46291,-6.27263 10.45452,6.27263 4.19013,-4.19013 -12.5454,-16.72715 10.69113,-6.39527 c 2.21052,-1.11268 1.85427,-2.94609 1.85427,-4.05925 -0.0158,-0.87719 -1.50624,-2.07412 -3.73304,-2.07412 z m 8.95192,12.5454 c -4.04503,0 -7.32651,3.27311 -7.32651,7.31814 0,4.04503 3.28148,7.32652 7.32651,7.32652 4.04504,0 7.31814,-3.28149 7.31814,-7.32652 0,-4.04503 -3.27358,-7.31814 -7.31814,-7.31814 z m -40.78093,20.9089 -10.4544956,6.27278 v 6.27262 l 10.4544956,-6.27262 10.45449,6.27262 10.46291,-6.27262 10.45452,6.27262 8.35512,-6.27262 12.5454,6.27262 v -6.27262 l -12.5454,-6.27278 -8.35512,6.27278 -10.45452,-6.27278 -10.46291,6.27278 z"
       inkscape:connector-curvature="0"
       id="path16388"
       style="stroke-width:4.18179989;fill:#ffffff;fill-opacity:1" />
  </g>
</svg>
